<svg width="12" height="13" viewBox="0 0 12 13" fill="none" xmlns="http://www.w3.org/2000/svg">
<path d="M3.76797 0.80005C4.14597 0.811546 4.51196 0.877545 4.86656 0.998144H4.90196C4.92596 1.00954 4.94396 1.02214 4.95596 1.03354C5.08856 1.07614 5.21396 1.12414 5.33395 1.19014L5.56195 1.29214C5.65195 1.34014 5.75995 1.42954 5.81995 1.46614C5.87995 1.50154 5.94595 1.53814 5.99995 1.57954C6.66654 1.07014 7.47593 0.794146 8.30992 0.80005C8.68852 0.80005 9.06651 0.853545 9.42591 0.974144C11.6405 1.69414 12.4385 4.12411 11.7719 6.24809C11.3939 7.33348 10.7759 8.32407 9.96651 9.13346C8.80792 10.2554 7.53653 11.2514 6.16795 12.1094L6.01795 12.2L5.86195 12.1034C4.48856 11.2514 3.20998 10.2554 2.04059 9.12746C1.2366 8.31807 0.618003 7.33348 0.234007 6.24809C-0.443985 4.12411 0.354006 1.69414 2.59258 0.961544C2.76658 0.901545 2.94598 0.859545 3.12598 0.836145H3.19798C3.36657 0.811546 3.53397 0.80005 3.70197 0.80005H3.76797ZM9.11391 2.69613C8.86792 2.61153 8.59792 2.74413 8.50792 2.99612C8.42392 3.24812 8.55592 3.52412 8.80792 3.61352C9.19251 3.75751 9.44991 4.13611 9.44991 4.55551V4.57411C9.43851 4.7115 9.47991 4.8441 9.56391 4.9461C9.64791 5.0481 9.77391 5.1075 9.90591 5.1201C10.1519 5.1135 10.3619 4.9161 10.3799 4.66351V4.59211C10.3979 3.75151 9.88851 2.99012 9.11391 2.69613Z" fill="white"/>
</svg>
